<svg xmlns="http://www.w3.org/2000/svg" id="canvas" viewBox="275.817 329.262 1250.990 194.199"><path d="M 341.81,346.02 C 339.97 346.73, 339.30 348.19, 337.77 351.50 C 336.25 354.80, 336.12 357.09, 334.19 362.55 C 332.25 368.01, 330.94 371.73, 328.10 378.80 C 325.27 385.87, 323.56 389.93, 320.01 397.90 C 316.47 405.87, 314.30 410.29, 310.38 418.65 C 306.46 427.01, 304.20 431.49, 300.42 439.70 C 296.64 447.91, 294.67 452.17, 291.50 459.70 C 288.32 467.22, 286.80 470.87, 284.54 477.34 C 282.28 483.81, 281.29 486.74, 280.18 492.06 C 279.07 497.38, 278.51 499.61, 278.99 503.93 C 279.47 508.25, 280.03 510.58, 282.56 513.67 C 285.10 516.76, 287.46 518.03, 291.67 519.37 C 295.88 520.71, 298.28 520.50, 303.63 520.35 C 308.99 520.19, 311.97 519.61, 318.45 518.61 C 324.92 517.60, 328.80 516.88, 336.01 515.34 C 343.22 513.80, 347.17 512.72, 354.50 510.92 C 361.83 509.12, 365.79 508.08, 372.67 506.34 C 379.54 504.61, 383.02 503.71, 388.87 502.26 C 394.73 500.82, 397.41 500.20, 401.94 499.13 C 406.46 498.06, 408.62 498.08, 411.52 496.91 C 414.41 495.74, 415.66 494.79, 416.42 493.26 C 417.18 491.74, 416.77 490.20, 415.33 489.29 C 413.88 488.37, 412.30 488.16, 409.20 488.67 C 406.11 489.19, 404.24 490.33, 399.83 491.84 C 395.43 493.34, 392.90 494.40, 387.18 496.20 C 381.45 497.99, 378.02 498.96, 371.22 500.81 C 364.42 502.65, 360.45 503.71, 353.18 505.42 C 345.91 507.13, 341.97 508.12, 334.85 509.37 C 327.74 510.62, 323.83 511.13, 317.61 511.67 C 311.38 512.20, 308.33 512.30, 303.71 512.05 C 299.09 511.80, 297.34 511.32, 294.52 510.42 C 291.69 509.52, 291.07 509.07, 289.56 507.54 C 288.05 506.01, 287.54 505.64, 286.96 502.76 C 286.39 499.88, 286.12 497.88, 286.68 493.13 C 287.23 488.38, 287.88 485.33, 289.73 479.01 C 291.58 472.69, 292.98 469.00, 295.94 461.51 C 298.90 454.03, 300.83 449.77, 304.55 441.59 C 308.26 433.41, 310.52 428.94, 314.53 420.63 C 318.54 412.32, 320.78 407.91, 324.61 400.04 C 328.45 392.17, 330.38 388.19, 333.72 381.28 C 337.07 374.38, 338.80 370.80, 341.33 365.52 C 343.86 360.23, 345.24 358.36, 346.37 354.85 C 347.50 351.34, 347.91 349.75, 347.00 347.98 C 346.08 346.22, 343.66 345.32, 341.81 346.02" style="stroke: black; fill: black;"/><path d="M 516.54,429.17 C 517.20 427.20, 516.88 425.61, 515.48 423.49 C 514.07 421.37, 512.73 419.75, 509.53 418.57 C 506.33 417.40, 503.77 417.25, 499.47 417.61 C 495.16 417.96, 492.92 418.70, 487.99 420.35 C 483.05 422.00, 480.39 423.05, 474.80 425.87 C 469.21 428.70, 465.98 430.51, 460.03 434.48 C 454.08 438.46, 450.72 441.01, 445.04 445.75 C 439.36 450.49, 436.35 453.28, 431.64 458.19 C 426.93 463.09, 424.70 465.63, 421.51 470.27 C 418.32 474.92, 416.84 477.06, 415.69 481.40 C 414.54 485.74, 414.28 488.36, 415.76 491.99 C 417.23 495.61, 419.33 497.72, 423.06 499.51 C 426.78 501.31, 429.43 501.29, 434.39 500.97 C 439.35 500.65, 442.16 499.85, 447.84 497.93 C 453.52 496.02, 456.65 494.55, 462.79 491.40 C 468.94 488.24, 472.32 486.24, 478.55 482.14 C 484.78 478.05, 488.13 475.55, 493.95 470.93 C 499.77 466.32, 502.70 463.56, 507.65 459.07 C 512.59 454.59, 515.10 452.23, 518.67 448.50 C 522.24 444.76, 524.84 443.14, 525.50 440.41 C 526.15 437.68, 524.06 435.35, 521.95 434.85 C 519.84 434.35, 517.56 435.10, 514.93 437.90 C 512.31 440.70, 511.35 443.82, 508.82 448.86 C 506.28 453.89, 504.65 457.43, 502.26 463.08 C 499.86 468.73, 498.54 471.85, 496.85 477.09 C 495.16 482.33, 494.31 484.70, 493.81 489.27 C 493.31 493.84, 493.15 496.06, 494.35 499.93 C 495.56 503.80, 496.87 505.98, 499.82 508.64 C 502.77 511.29, 505.43 512.07, 509.10 513.21 C 512.78 514.35, 515.13 514.93, 518.21 514.33 C 521.28 513.73, 523.29 512.17, 524.49 510.21 C 525.68 508.25, 525.33 506.37, 524.17 504.54 C 523.01 502.72, 521.09 501.87, 518.67 501.08 C 516.25 500.29, 514.51 500.89, 512.08 500.59 C 509.64 500.29, 508.21 500.37, 506.51 499.59 C 504.81 498.80, 504.40 498.60, 503.56 496.68 C 502.71 494.75, 502.14 493.40, 502.28 489.96 C 502.43 486.51, 502.82 484.16, 504.30 479.46 C 505.77 474.77, 507.08 471.67, 509.67 466.50 C 512.26 461.32, 514.43 458.13, 517.26 453.57 C 520.09 449.01, 522.43 447.01, 523.80 443.68 C 525.17 440.35, 525.13 438.54, 524.10 436.91 C 523.07 435.28, 520.88 434.20, 518.65 435.52 C 516.41 436.83, 515.99 439.65, 512.94 443.48 C 509.89 447.31, 507.92 450.06, 503.40 454.66 C 498.89 459.25, 495.98 461.95, 490.37 466.46 C 484.77 470.96, 481.46 473.39, 475.38 477.19 C 469.29 480.99, 465.89 482.83, 459.95 485.48 C 454.01 488.13, 450.83 489.20, 445.66 490.43 C 440.49 491.66, 437.81 491.70, 434.10 491.65 C 430.40 491.60, 429.08 490.85, 427.13 490.17 C 425.19 489.50, 425.07 489.62, 424.39 488.26 C 423.70 486.89, 423.13 486.20, 423.73 483.35 C 424.32 480.50, 424.86 478.20, 427.34 474.01 C 429.82 469.82, 431.83 467.12, 436.13 462.39 C 440.44 457.66, 443.39 454.86, 448.86 450.35 C 454.33 445.84, 457.67 443.40, 463.47 439.84 C 469.26 436.28, 472.49 434.69, 477.83 432.54 C 483.17 430.40, 485.94 429.75, 490.17 429.14 C 494.40 428.52, 496.19 428.80, 498.98 429.45 C 501.76 430.10, 502.31 431.59, 504.10 432.38 C 505.89 433.17, 506.31 433.20, 507.93 433.39 C 509.55 433.57, 510.47 434.15, 512.19 433.31 C 513.91 432.46, 515.89 431.13, 516.54 429.17" style="stroke: black; fill: black;"/><path d="M 875.30,335.53 C 874.06 333.83, 872.11 333.18, 868.17 332.63 C 864.23 332.08, 861.49 332.16, 855.60 332.78 C 849.71 333.39, 846.07 333.79, 838.71 335.69 C 831.35 337.59, 827.20 338.90, 818.81 342.28 C 810.43 345.66, 805.72 347.75, 796.78 352.60 C 787.83 357.44, 782.94 360.41, 774.09 366.50 C 765.24 372.59, 760.59 376.15, 752.52 383.06 C 744.45 389.97, 740.41 393.83, 733.74 401.05 C 727.07 408.28, 723.99 412.07, 719.16 419.18 C 714.32 426.29, 712.30 429.90, 709.56 436.62 C 706.82 443.33, 705.92 446.65, 705.47 452.75 C 705.03 458.85, 705.42 461.90, 707.31 467.12 C 709.20 472.35, 710.92 474.86, 714.93 478.86 C 718.93 482.86, 721.61 484.49, 727.34 487.12 C 733.06 489.76, 736.56 490.66, 743.55 492.03 C 750.53 493.40, 754.56 493.69, 762.26 493.96 C 769.96 494.23, 774.13 494.00, 782.05 493.37 C 789.96 492.74, 794.24 492.13, 801.83 490.82 C 809.43 489.50, 813.21 488.62, 820.02 486.81 C 826.83 485.00, 830.38 483.65, 835.86 481.78 C 841.34 479.92, 843.89 479.27, 847.41 477.49 C 850.93 475.72, 852.63 474.58, 853.46 472.89 C 854.30 471.21, 853.37 469.47, 851.59 469.07 C 849.81 468.67, 848.16 469.58, 844.55 470.88 C 840.95 472.18, 838.79 473.49, 833.57 475.59 C 828.35 477.68, 825.00 479.36, 818.46 481.36 C 811.93 483.36, 808.27 484.26, 800.91 485.61 C 793.54 486.95, 789.32 487.53, 781.64 488.08 C 773.97 488.64, 769.88 488.79, 762.51 488.39 C 755.14 487.99, 751.26 487.53, 744.79 486.09 C 738.31 484.64, 735.15 483.58, 730.14 481.17 C 725.12 478.75, 723.07 477.29, 719.72 474.02 C 716.38 470.74, 715.10 468.99, 713.41 464.80 C 711.73 460.61, 711.11 458.33, 711.28 453.06 C 711.45 447.79, 711.94 444.72, 714.24 438.43 C 716.55 432.15, 718.33 428.55, 722.82 421.61 C 727.31 414.68, 730.26 410.89, 736.70 403.76 C 743.15 396.64, 747.12 392.79, 755.04 385.99 C 762.96 379.19, 767.57 375.68, 776.31 369.76 C 785.06 363.83, 789.92 360.94, 798.77 356.36 C 807.62 351.78, 812.31 349.81, 820.56 346.86 C 828.81 343.91, 832.93 342.90, 840.02 341.62 C 847.11 340.34, 850.54 340.44, 856.00 340.46 C 861.47 340.47, 863.68 341.56, 867.35 341.69 C 871.02 341.83, 872.77 342.38, 874.36 341.15 C 875.95 339.92, 876.53 337.24, 875.30 335.53" style="stroke: black; fill: black;"/><path d="M 901.20,415.78 C 899.19 415.96, 897.86 416.61, 896.15 418.97 C 894.43 421.34, 894.31 423.47, 892.62 427.59 C 890.92 431.71, 889.65 434.62, 887.69 439.58 C 885.72 444.53, 884.56 447.41, 882.78 452.39 C 881.00 457.36, 879.90 459.88, 878.78 464.45 C 877.65 469.03, 876.79 471.24, 877.14 475.27 C 877.49 479.31, 878.17 481.62, 880.52 484.61 C 882.86 487.61, 885.01 489.22, 888.87 490.24 C 892.74 491.26, 895.19 490.74, 899.84 489.70 C 904.49 488.66, 906.96 487.53, 912.14 485.04 C 917.32 482.55, 920.10 480.87, 925.75 477.25 C 931.39 473.63, 934.52 471.40, 940.36 466.96 C 946.20 462.51, 949.42 459.79, 954.95 455.02 C 960.48 450.25, 963.27 447.46, 968.02 443.11 C 972.77 438.76, 975.37 436.66, 978.70 433.28 C 982.03 429.90, 984.20 428.46, 984.67 426.19 C 985.14 423.92, 982.98 421.96, 981.05 421.93 C 979.12 421.91, 977.25 423.04, 975.02 426.06 C 972.80 429.09, 972.08 432.08, 969.92 437.06 C 967.76 442.04, 966.41 445.51, 964.23 450.95 C 962.05 456.39, 960.76 459.35, 959.04 464.28 C 957.32 469.20, 956.42 471.48, 955.62 475.58 C 954.82 479.68, 954.45 481.74, 955.02 484.80 C 955.59 487.85, 956.92 489.30, 958.48 490.85 C 960.03 492.39, 961.33 492.73, 962.80 492.52 C 964.26 492.30, 965.18 490.89, 965.79 489.75 C 966.41 488.61, 965.87 488.14, 965.86 486.82 C 965.85 485.49, 965.96 485.12, 965.74 483.13 C 965.53 481.14, 964.58 480.10, 964.80 476.85 C 965.02 473.60, 965.41 471.38, 966.82 466.87 C 968.24 462.36, 969.48 459.37, 971.89 454.29 C 974.30 449.21, 976.29 446.11, 978.87 441.49 C 981.46 436.86, 983.58 434.77, 984.82 431.18 C 986.05 427.58, 986.17 425.53, 985.03 423.51 C 983.89 421.49, 981.56 420.19, 979.12 421.06 C 976.69 421.92, 975.98 424.33, 972.87 427.84 C 969.77 431.34, 967.96 434.04, 963.60 438.59 C 959.25 443.15, 956.47 445.89, 951.10 450.59 C 945.73 455.30, 942.53 457.94, 936.77 462.12 C 931.00 466.29, 927.83 468.37, 922.28 471.46 C 916.73 474.56, 913.82 475.87, 909.00 477.58 C 904.18 479.29, 901.68 479.66, 898.16 480.03 C 894.65 480.41, 893.35 479.81, 891.40 479.46 C 889.46 479.12, 889.27 479.30, 888.42 478.29 C 887.56 477.29, 887.32 476.82, 887.13 474.43 C 886.94 472.05, 886.73 470.20, 887.46 466.38 C 888.20 462.56, 889.07 459.94, 890.80 455.33 C 892.53 450.72, 893.86 447.94, 896.14 443.32 C 898.41 438.71, 900.02 436.07, 902.19 432.25 C 904.37 428.43, 906.20 427.06, 907.00 424.22 C 907.80 421.38, 907.36 419.73, 906.20 418.04 C 905.04 416.35, 903.21 415.59, 901.20 415.78" style="stroke: black; fill: black;"/><path d="M 1070.78,349.69 C 1068.95 350.18, 1068.21 351.20, 1066.52 354.25 C 1064.83 357.30, 1064.58 359.64, 1062.31 364.94 C 1060.04 370.24, 1058.49 373.85, 1055.16 380.76 C 1051.83 387.66, 1049.67 391.82, 1045.65 399.45 C 1041.64 407.08, 1039.21 411.32, 1035.09 418.92 C 1030.97 426.51, 1028.67 430.48, 1025.07 437.42 C 1021.47 444.35, 1019.75 447.76, 1017.07 453.60 C 1014.39 459.43, 1013.30 462.06, 1011.68 466.57 C 1010.06 471.09, 1009.13 472.96, 1008.98 476.16 C 1008.83 479.36, 1009.79 480.70, 1010.91 482.57 C 1012.04 484.44, 1013.28 485.02, 1014.59 485.51 C 1015.90 486.00, 1016.83 485.74, 1017.45 485.01 C 1018.08 484.29, 1017.64 482.66, 1017.74 481.89 C 1017.83 481.11, 1017.75 481.51, 1017.94 481.15 C 1018.14 480.78, 1018.50 480.99, 1018.71 480.05 C 1018.93 479.11, 1019.00 478.78, 1019.02 476.46 C 1019.03 474.15, 1018.09 472.60, 1018.78 468.47 C 1019.47 464.35, 1020.30 461.61, 1022.47 455.85 C 1024.64 450.10, 1026.24 446.63, 1029.63 439.71 C 1033.01 432.80, 1035.28 428.81, 1039.40 421.26 C 1043.53 413.71, 1045.99 409.48, 1050.25 401.96 C 1054.51 394.44, 1056.86 390.36, 1060.68 383.66 C 1064.50 376.96, 1066.46 373.52, 1069.35 368.44 C 1072.25 363.36, 1073.90 361.58, 1075.16 358.25 C 1076.42 354.92, 1076.54 353.51, 1075.66 351.80 C 1074.78 350.09, 1072.61 349.20, 1070.78 349.69" style="stroke: black; fill: black;"/><path d="M 1137.88,350.80 C 1136.00 350.86, 1134.81 351.04, 1133.16 353.24 C 1131.51 355.43, 1131.56 357.44, 1129.63 361.79 C 1127.69 366.14, 1126.39 369.11, 1123.48 374.98 C 1120.56 380.84, 1118.69 384.40, 1115.05 391.10 C 1111.40 397.80, 1109.17 401.57, 1105.26 408.48 C 1101.35 415.40, 1099.15 419.08, 1095.50 425.67 C 1091.85 432.26, 1090.08 435.61, 1087.03 441.43 C 1083.97 447.25, 1082.57 450.01, 1080.22 454.76 C 1077.88 459.52, 1076.52 461.75, 1075.31 465.20 C 1074.10 468.66, 1074.00 469.92, 1074.18 472.02 C 1074.36 474.13, 1075.39 474.82, 1076.21 475.72 C 1077.04 476.62, 1077.61 476.55, 1078.29 476.53 C 1078.97 476.51, 1079.09 475.88, 1079.60 475.62 C 1080.10 475.35, 1080.15 475.68, 1080.81 475.20 C 1081.48 474.73, 1082.25 474.71, 1082.93 473.24 C 1083.61 471.77, 1083.44 471.00, 1084.20 467.84 C 1084.95 464.69, 1085.09 462.22, 1086.70 457.46 C 1088.32 452.69, 1089.57 449.87, 1092.28 444.03 C 1094.99 438.19, 1096.70 434.82, 1100.24 428.25 C 1103.77 421.68, 1105.95 418.02, 1109.95 411.18 C 1113.95 404.35, 1116.24 400.60, 1120.22 394.08 C 1124.20 387.56, 1126.30 384.12, 1129.85 378.59 C 1133.40 373.07, 1135.21 370.45, 1137.95 366.46 C 1140.69 362.48, 1142.64 361.39, 1143.56 358.67 C 1144.48 355.96, 1143.68 354.48, 1142.54 352.91 C 1141.41 351.33, 1139.75 350.73, 1137.88 350.80" style="stroke: black; fill: black;"/><path d="M 1077.68,425.10 C 1078.83 426.76, 1080.07 427.82, 1082.85 428.06 C 1085.62 428.29, 1087.39 427.07, 1091.53 426.26 C 1095.67 425.45, 1098.44 424.86, 1103.54 424.00 C 1108.65 423.15, 1111.55 422.74, 1117.06 421.99 C 1122.56 421.23, 1125.58 420.89, 1131.05 420.23 C 1136.52 419.58, 1139.39 419.40, 1144.41 418.69 C 1149.43 417.99, 1153.96 418.36, 1156.15 416.72 C 1158.34 415.07, 1157.90 411.53, 1155.38 410.47 C 1152.86 409.40, 1148.59 410.92, 1143.56 411.38 C 1138.53 411.85, 1135.69 412.25, 1130.22 412.81 C 1124.76 413.37, 1121.75 413.77, 1116.22 414.20 C 1110.70 414.63, 1107.79 414.73, 1102.59 414.95 C 1097.40 415.17, 1094.51 415.14, 1090.26 415.30 C 1086.01 415.47, 1083.99 414.87, 1081.36 415.75 C 1078.73 416.64, 1077.84 417.86, 1077.10 419.72 C 1076.36 421.59, 1076.53 423.43, 1077.68 425.10" style="stroke: black; fill: black;"/><path d="M 1193.98,406.65 C 1192.00 406.29, 1190.34 406.32, 1188.12 408.27 C 1185.90 410.21, 1185.35 412.46, 1182.89 416.38 C 1180.42 420.29, 1178.63 423.00, 1175.79 427.83 C 1172.94 432.66, 1171.23 435.57, 1168.65 440.53 C 1166.07 445.50, 1164.65 448.05, 1162.89 452.67 C 1161.14 457.28, 1160.08 459.40, 1159.88 463.61 C 1159.68 467.83, 1159.89 470.39, 1161.89 473.74 C 1163.89 477.09, 1166.07 478.88, 1169.87 480.37 C 1173.67 481.87, 1176.14 481.69, 1180.90 481.21 C 1185.65 480.73, 1188.23 479.92, 1193.64 477.97 C 1199.05 476.02, 1202.01 474.58, 1207.94 471.45 C 1213.88 468.33, 1217.14 466.35, 1223.32 462.35 C 1229.50 458.35, 1232.92 455.96, 1238.82 451.44 C 1244.73 446.92, 1247.76 444.23, 1252.85 439.76 C 1257.94 435.28, 1260.37 432.79, 1264.28 429.06 C 1268.18 425.33, 1270.82 424.08, 1272.38 421.09 C 1273.94 418.11, 1273.57 415.84, 1272.08 414.13 C 1270.60 412.42, 1267.60 411.22, 1264.97 412.55 C 1262.33 413.88, 1261.51 416.65, 1258.93 420.78 C 1256.35 424.92, 1254.84 427.92, 1252.07 433.23 C 1249.29 438.53, 1247.61 441.86, 1245.06 447.29 C 1242.51 452.71, 1241.08 455.51, 1239.30 460.35 C 1237.51 465.18, 1236.63 467.24, 1236.15 471.45 C 1235.67 475.66, 1235.60 477.94, 1236.90 481.38 C 1238.20 484.83, 1240.04 486.68, 1242.63 488.67 C 1245.22 490.66, 1247.35 491.32, 1249.86 491.34 C 1252.38 491.36, 1254.06 490.40, 1255.20 488.78 C 1256.34 487.17, 1256.10 485.01, 1255.56 483.29 C 1255.02 481.57, 1253.75 481.04, 1252.49 480.18 C 1251.23 479.31, 1250.46 479.56, 1249.27 478.96 C 1248.07 478.37, 1247.31 478.55, 1246.51 477.19 C 1245.71 475.83, 1245.19 475.01, 1245.26 472.16 C 1245.33 469.31, 1245.51 467.23, 1246.85 462.93 C 1248.20 458.64, 1249.43 455.73, 1251.99 450.67 C 1254.55 445.61, 1256.52 442.46, 1259.65 437.64 C 1262.77 432.82, 1264.95 430.30, 1267.61 426.57 C 1270.27 422.84, 1272.46 421.54, 1272.95 418.99 C 1273.45 416.45, 1271.70 414.56, 1270.08 413.86 C 1268.46 413.16, 1267.08 413.41, 1264.87 415.47 C 1262.65 417.53, 1262.23 420.21, 1259.01 424.18 C 1255.78 428.14, 1253.49 430.75, 1248.75 435.29 C 1244.01 439.83, 1241.05 442.47, 1235.32 446.87 C 1229.60 451.27, 1226.19 453.57, 1220.13 457.28 C 1214.06 460.98, 1210.75 462.80, 1204.98 465.40 C 1199.21 468.00, 1196.20 469.04, 1191.27 470.28 C 1186.34 471.51, 1183.86 471.57, 1180.33 471.58 C 1176.80 471.58, 1175.56 470.94, 1173.62 470.30 C 1171.67 469.65, 1171.46 469.62, 1170.61 468.36 C 1169.76 467.09, 1169.31 466.53, 1169.36 463.97 C 1169.41 461.40, 1169.56 459.44, 1170.86 455.52 C 1172.17 451.61, 1173.39 448.94, 1175.88 444.38 C 1178.37 439.81, 1180.22 437.06, 1183.31 432.70 C 1186.41 428.34, 1188.52 425.95, 1191.37 422.57 C 1194.23 419.20, 1196.25 418.32, 1197.58 415.83 C 1198.91 413.33, 1198.73 411.94, 1198.01 410.11 C 1197.29 408.27, 1195.96 407.02, 1193.98 406.65" style="stroke: black; fill: black;"/><path d="M 1327.20,421.24 C 1325.22 421.42, 1323.96 421.98, 1322.37 424.11 C 1320.79 426.24, 1320.87 428.18, 1319.27 431.89 C 1317.66 435.60, 1316.56 438.26, 1314.36 442.66 C 1312.15 447.05, 1310.76 449.71, 1308.24 453.88 C 1305.72 458.05, 1304.04 460.24, 1301.76 463.51 C 1299.47 466.79, 1297.48 467.88, 1296.81 470.26 C 1296.14 472.64, 1297.01 474.18, 1298.41 475.40 C 1299.81 476.63, 1301.88 477.22, 1303.81 476.39 C 1305.75 475.57, 1306.58 474.31, 1308.09 471.26 C 1309.60 468.21, 1309.57 465.46, 1311.37 461.14 C 1313.17 456.82, 1314.30 454.15, 1317.09 449.68 C 1319.88 445.21, 1321.75 442.80, 1325.32 438.80 C 1328.90 434.79, 1331.05 432.77, 1334.96 429.64 C 1338.87 426.52, 1341.04 425.19, 1344.86 423.16 C 1348.67 421.13, 1350.61 420.43, 1354.02 419.49 C 1357.43 418.54, 1358.95 418.40, 1361.93 418.44 C 1364.90 418.48, 1366.18 418.91, 1368.89 419.69 C 1371.60 420.47, 1373.11 421.80, 1375.48 422.33 C 1377.84 422.86, 1378.83 422.55, 1380.71 422.34 C 1382.59 422.13, 1383.65 422.28, 1384.87 421.28 C 1386.10 420.27, 1386.91 418.95, 1386.85 417.30 C 1386.78 415.65, 1386.04 414.62, 1384.53 413.03 C 1383.03 411.43, 1382.11 410.30, 1379.34 409.31 C 1376.56 408.32, 1374.29 408.25, 1370.65 408.06 C 1367.01 407.88, 1365.03 407.82, 1361.13 408.40 C 1357.24 408.98, 1355.25 409.43, 1351.19 410.98 C 1347.12 412.52, 1345.04 413.57, 1340.83 416.14 C 1336.63 418.70, 1334.38 420.27, 1330.17 423.78 C 1325.95 427.30, 1323.73 429.48, 1319.76 433.71 C 1315.80 437.94, 1313.84 440.45, 1310.34 444.93 C 1306.84 449.41, 1305.13 451.95, 1302.26 456.12 C 1299.38 460.29, 1297.40 462.32, 1295.97 465.77 C 1294.53 469.22, 1294.24 471.00, 1295.07 473.37 C 1295.90 475.73, 1297.89 477.00, 1300.11 477.60 C 1302.33 478.19, 1304.14 478.09, 1306.16 476.33 C 1308.18 474.57, 1308.24 472.34, 1310.21 468.78 C 1312.19 465.22, 1313.50 462.81, 1316.03 458.54 C 1318.56 454.26, 1320.20 451.72, 1322.86 447.42 C 1325.53 443.12, 1327.18 440.71, 1329.35 437.06 C 1331.52 433.40, 1333.13 431.90, 1333.71 429.13 C 1334.30 426.35, 1333.58 424.77, 1332.27 423.19 C 1330.97 421.61, 1329.18 421.05, 1327.20 421.24" style="stroke: black; fill: black;"/><path d="M 1410.85,458.98 C 1412.42 460.22, 1413.82 460.62, 1416.78 460.08 C 1419.73 459.54, 1421.38 458.07, 1425.63 456.27 C 1429.88 454.47, 1432.83 453.26, 1438.04 451.08 C 1443.26 448.90, 1446.35 447.63, 1451.72 445.36 C 1457.09 443.09, 1460.01 441.89, 1464.89 439.71 C 1469.76 437.53, 1472.24 436.59, 1476.10 434.47 C 1479.97 432.34, 1482.24 431.83, 1484.20 429.09 C 1486.16 426.35, 1486.47 423.99, 1485.90 420.78 C 1485.33 417.56, 1484.36 414.83, 1481.35 413.02 C 1478.34 411.22, 1475.78 411.45, 1470.84 411.76 C 1465.91 412.06, 1462.90 412.80, 1456.67 414.56 C 1450.44 416.31, 1446.66 417.61, 1439.71 420.54 C 1432.77 423.47, 1428.66 425.42, 1421.93 429.19 C 1415.21 432.97, 1411.57 435.23, 1406.10 439.42 C 1400.62 443.61, 1397.99 445.75, 1394.56 450.16 C 1391.13 454.57, 1389.51 456.93, 1388.93 461.46 C 1388.35 466.00, 1389.08 468.94, 1391.66 472.83 C 1394.25 476.71, 1396.79 478.29, 1401.85 480.90 C 1406.91 483.50, 1410.15 484.31, 1416.97 485.86 C 1423.80 487.40, 1427.91 487.83, 1435.99 488.62 C 1444.07 489.40, 1448.77 489.53, 1457.37 489.78 C 1465.98 490.03, 1470.68 489.94, 1479.00 489.87 C 1487.32 489.80, 1492.00 489.58, 1498.97 489.43 C 1505.95 489.29, 1509.14 489.49, 1513.87 489.15 C 1518.60 488.80, 1520.92 488.83, 1522.62 487.71 C 1524.32 486.58, 1524.16 484.42, 1522.36 483.51 C 1520.56 482.60, 1518.33 483.10, 1513.61 483.16 C 1508.90 483.21, 1505.72 483.45, 1498.78 483.78 C 1491.84 484.11, 1487.16 484.62, 1478.92 484.80 C 1470.67 484.99, 1466.01 485.07, 1457.55 484.73 C 1449.09 484.39, 1444.42 484.13, 1436.62 483.09 C 1428.83 482.06, 1424.81 481.33, 1418.57 479.56 C 1412.33 477.79, 1409.47 476.51, 1405.40 474.24 C 1401.34 471.98, 1400.03 470.60, 1398.24 468.23 C 1396.45 465.87, 1396.14 465.21, 1396.48 462.41 C 1396.82 459.61, 1397.27 457.88, 1399.94 454.23 C 1402.60 450.58, 1404.85 448.16, 1409.82 444.17 C 1414.78 440.18, 1418.33 437.84, 1424.77 434.29 C 1431.21 430.74, 1435.31 428.86, 1442.02 426.42 C 1448.74 423.97, 1452.57 423.01, 1458.35 422.08 C 1464.13 421.15, 1467.13 421.55, 1470.94 421.78 C 1474.74 422.00, 1475.76 423.20, 1477.38 423.20 C 1479.00 423.21, 1479.18 422.01, 1479.05 421.79 C 1478.92 421.57, 1478.28 421.12, 1476.75 422.11 C 1475.21 423.10, 1474.42 424.64, 1471.37 426.75 C 1468.32 428.86, 1466.03 430.36, 1461.52 432.66 C 1457.01 434.97, 1454.11 436.19, 1448.83 438.27 C 1443.54 440.35, 1440.39 441.37, 1435.09 443.06 C 1429.79 444.74, 1426.75 445.51, 1422.32 446.71 C 1417.89 447.92, 1415.61 447.66, 1412.94 449.09 C 1410.26 450.52, 1409.38 451.87, 1408.96 453.85 C 1408.54 455.83, 1409.29 457.73, 1410.85 458.98" style="stroke: black; fill: black;"/></svg>